<svg width="679" height="384" viewBox="0 0 679 384" xmlns="http://www.w3.org/2000/svg"><title>6F7E4533-A4AC-4AC7-A234-E417A3690BF0</title><g fill="none" fill-rule="evenodd"><path d="M0 0h679v384H0z"/><path d="M498.372 216.451h-13.367c-.574 0-.902-.164-1.148-.738-2.706-5.495-5.495-10.99-8.283-16.484-.246-.574-.246-.984 0-1.558 2.706-5.412 5.33-10.907 8.037-16.32.082-.246.41-.41.656-.41h13.04c.081 0 .081 0 .245.082-.328.574-.574 1.149-.902 1.723-2.706 5.002-5.33 10.005-8.037 15.007-.164.246-.164.738-.082.902a3317.07 3317.07 0 0 0 9.595 17.386c0 .082.082.164.164.246v.164h.082zm-122.274.164l-5.823-30.261h-.164l-5.822 30.261H350.51l-10.25-49.205h13.695l4.182 31.163h.164l5.413-31.163h13.367l5.33 31.163h.247l4.182-31.163h13.285l-10.25 49.205h-13.778zm-181.239-1.066H181v-47.155h18.862c2.624 0 5.248.41 7.709 1.23 5.74 1.968 9.02 6.479 9.103 12.548 0 1.968-.082 3.854-.656 5.658-1.067 3.362-3.199 5.905-6.315 7.545l-.574.328 9.923 19.846H205.11c-.574 0-.82-.164-1.066-.656l-7.626-16.238c-.328-.738-.82-.82-1.559-.656v17.55zm-.574-26.735c1.559-.082 3.117-.082 4.675-.246 1.968-.328 3.28-1.558 3.69-3.526.164-.902.246-1.804.164-2.624-.164-1.477-.82-2.707-2.214-3.445-1.968-1.066-4.182-.574-6.315-.656v10.497zm85.863 3.773l-3.362-7.627c3.526-1.886 7.135-3.445 11.07-4.1 3.691-.575 7.3-.657 10.908.327 4.182 1.149 6.479 4.019 6.97 8.447.083 1.148.165 2.297.165 3.445v15.827c0 2.297.328 2.707 2.624 3.199l.328.082v4.346c-1.394 0-2.706.082-4.1 0-2.379-.164-4.757-.492-6.889-1.394-1.394-.574-2.542-1.476-3.28-2.788-.246-.492-.492-.328-.738-.082-.985.902-1.969 1.804-3.035 2.542-2.542 1.722-5.33 2.296-8.365 1.722-4.346-.82-7.052-4.264-7.216-8.775-.164-4.674 2.05-7.873 6.232-9.84 3.199-1.477 6.561-1.969 10.005-2.38.41-.081.902-.081 1.312-.163 1.067-.082 1.067-.082 1.067-1.23v-1.64c-.082-1.805-1.149-2.953-2.953-3.199-1.968-.246-3.936.246-5.74.984-1.394.574-2.789 1.23-4.183 1.805-.246.246-.492.328-.82.492zm13.696 7.134c-1.395.41-2.625.656-3.773 1.148-2.296.903-3.28 2.543-3.116 5.003.082 1.722 1.066 2.87 2.788 3.116 1.23.164 2.378 0 3.526-.492.41-.164.575-.41.493-.82v-7.955h.082zm165.903 2.133h-18.534c-.574 3.198 1.886 5.904 5.248 6.068 3.609.164 7.053-.738 10.333-2.214l.82-.328 2.789 8.283c-1.395.574-2.707 1.148-4.1 1.558-4.921 1.64-10.006 2.132-15.09 1.23-6.479-1.148-10.333-5.084-11.728-11.4-.984-4.592-.984-9.266.246-13.859 1.805-6.806 7.135-10.907 14.188-10.989 2.46 0 4.838.246 7.053 1.148 4.428 1.805 6.97 5.331 8.118 9.841.657 2.297.82 4.757.739 7.135-.082 1.148-.082 2.296-.082 3.527zm-12.302-5.003c0-1.066.082-2.05 0-2.952-.164-1.558-.41-3.035-.82-4.51-.328-1.149-1.23-1.64-2.378-1.64-1.23 0-2.05.573-2.46 1.721-.328.902-.574 1.804-.656 2.789-.164 1.558-.164 3.116-.328 4.674h6.642v-.082zm-22.47 8.529l2.788 8.2-3.69 1.477c-4.92 1.804-10.005 2.214-15.172 1.476-6.232-.902-10.66-4.92-11.973-10.99-1.148-5.166-1.23-10.332.41-15.335 1.886-5.904 6.725-9.513 12.957-9.84 3.117-.165 6.233.163 9.021 1.64 3.69 1.886 5.823 4.92 6.971 8.856 1.066 3.609.902 7.381.82 11.154h-18.534c-.574 2.624 1.476 5.494 4.1 5.904 2.789.41 5.495 0 8.12-.82 1.394-.574 2.706-1.148 4.182-1.722zm-10.087-8.529c0-.656.082-1.312 0-1.968-.246-1.722-.328-3.527-.738-5.249-.328-1.394-1.23-1.968-2.542-1.968-1.23 0-2.133.574-2.543 1.968-.246.82-.41 1.64-.492 2.379-.164 1.558-.164 3.198-.328 4.838h6.643zm-168.363 4.182H227.99c.082.739.164 1.395.328 1.969.656 2.706 2.214 3.936 5.002 4.1 3.609.164 6.971-.82 10.251-2.214l.574-.246h.246l2.789 8.2c-1.804.657-3.527 1.395-5.33 1.969-4.511 1.312-9.104 1.64-13.696.82-5.905-1.066-9.841-4.51-11.317-10.333-1.394-5.33-1.394-10.743.328-16.074 1.886-5.822 6.642-9.349 12.711-9.759 3.198-.164 6.233.164 9.103 1.64 3.854 2.05 5.987 5.413 6.97 9.513.739 3.445.575 6.89.575 10.415zm-12.138-5.002v-1.558c-.082-1.968-.082-4.019-.82-5.905-.492-1.23-1.23-1.722-2.378-1.722-1.148 0-1.968.492-2.46 1.722-.902 2.378-.82 4.92-.82 7.463h6.478zm240.45 20.338h-13.204v-46.744c0-.985 0-.985.984-1.149 3.854-.492 7.709-.902 11.563-1.394.164 0 .41 0 .656-.082v49.37zm-136.135 0h-13.04v-47.81l13.04-1.559v49.37zm-28.62-35.51h13.039v35.428h-13.04v-35.428zm-.329-12.219h13.614v8.94h-13.614v-8.94zm-63.72 11.071h5.74v-10.005c0-1.066 0-1.066.984-1.148 3.69-.492 7.381-.984 11.071-1.394.247 0 .493-.082.82-.082v12.63h8.611v9.102h-8.528v14.434c0 2.296 1.066 3.28 3.28 3.116 1.886-.164 3.526-.82 5.248-1.558l.82-.328c0 .246.083.328.083.41v9.02c0 .247-.164.657-.41.739-4.675 2.214-9.678 3.034-14.762 2.132-4.264-.738-6.725-3.608-6.97-8.119-.165-2.624-.083-5.248-.083-7.873v-11.891h-5.74v-9.185h-.164z" fill="#62A9A0"/></g></svg>