<?xml version="1.0" encoding="utf-8"?>
<!-- Generator: Adobe Illustrator 22.0.0, SVG Export Plug-In . SVG Version: 6.00 Build 0)  -->
<svg version="1.1" id="Capa_1" xmlns="http://www.w3.org/2000/svg" xmlns:xlink="http://www.w3.org/1999/xlink" x="0px" y="0px"
	 viewBox="0 0 1001.5 184.2" style="enable-background:new 0 0 1001.5 184.2;" xml:space="preserve">
<style type="text/css">
	.st0{fill:#56E39F;}
	.st1{fill:#ED7C71;}
</style>
<g>
	<g>
		<path class="st0" d="M19.3,143.8c-11.5-8-17.3-19.7-17.3-35c0-6.4,1.5-12.2,4.6-17.5s7.5-9.8,13.3-13.6c5.4-3.7,10.9-6.3,16.5-7.9
			c7.9-2.4,13.8-4.1,17.7-5.1l17.1-4.1c4.5-1.1,9.2-2.6,14-4.5c3.7-1.5,6.4-3.2,8.3-5.1c1.2-1.2,1.8-2.3,1.8-3.3
			c0-2.3-0.3-4.5-1-6.5c-0.4-1.5-1.4-3-3.1-4.5c-2-1.6-4.9-3.1-8.5-4.3c-3.9-1.4-9-2-15.3-2c-6.2,0-11.4,0.6-15.5,1.8
			c-6,1.8-10.1,4.1-12.4,6.9s-3.7,6-4.1,9.4l-0.8,6.3H4.9l0.4-7.5c0.5-12.9,6-23.5,16.3-31.9C32.4,6.5,47.3,2,66.1,2
			c18.7,0,33,4,42.9,12c10.2,8.4,15.3,19.3,15.3,32.5c0,9.9-3,17.8-8.9,23.6c-4.7,4.9-11.3,9.1-19.5,12.6c-8.3,3.5-16.1,6-23.4,7.3
			c-8,1.6-15.3,3.5-22,5.5c-6.2,1.9-11.3,4.2-15.3,6.9c-1.4,0.9-2.3,2-2.8,3c-0.5,1.1-0.8,2.4-0.8,4.1c0,2.6,0.5,5,1.6,7.3
			c1.1,2.3,3.9,4.4,8.4,6.4s11.5,2.9,20.8,2.9c11.1,0,19.7-1.8,25.8-5.3c6.2-3.7,9.6-8.9,10-15.7l0.4-6.7h30.5l-0.8,7.9
			c-1.6,15.3-7.5,27-17.7,35.2c-11.1,8.9-27.1,13.4-48,13.4C44.7,155.2,30.2,151.4,19.3,143.8z"/>
		<path class="st0" d="M171.8,136.5c-12-12.3-18.1-28.4-18.1-48.4V3.7h29.7v84.8c0,12.3,3.6,22,10.8,28.9c5.8,5.7,13.9,8.5,24.2,8.5
			s18.5-2.8,24.6-8.5c7.2-6.8,10.8-16.4,10.8-28.9V3.7h29.5v84.4c0,19.8-6,35.9-18.1,48.4s-27.7,18.7-46.8,18.7
			C199.6,155.3,184,149,171.8,136.5z"/>
		<path class="st0" d="M301,4.5h32.1l42.1,106l42.1-106h32.3l-60.8,149.9h-27.3L301,4.5z"/>
		<path class="st0" d="M464.5,3.7h29.7v149.9h-29.7V3.7z"/>
		<path class="st0" d="M562.1,148.5c-8.5-3.5-16-8.5-22.4-15c-14.1-14.5-21.2-32.8-21.2-54.9s7-40.3,21.2-54.7
			c6.8-6.8,14.2-11.8,22.4-15c8.1-3.4,16.8-5.1,26-5.1h64.3v149.9h-64.3C578.9,153.6,570.2,151.9,562.1,148.5z M622.7,124.7V32.4
			h-34c-11.9,0-21.7,4.5-29.3,13.4c-7.5,8.7-11.2,19.6-11.2,32.7c0,13.3,3.7,24.3,11.2,32.9c7.5,8.8,17.2,13.2,29.3,13.2
			L622.7,124.7L622.7,124.7z"/>
		<path class="st0" d="M697.8,132.3c-14-14.4-20.9-32.4-20.9-54.1c0-21.6,7-39.6,21.2-54.1C712.3,9.2,730.6,1.7,753,1.7
			s40.7,7.5,54.9,22.4c14,14.4,20.9,32.4,20.9,54.1c0,21.8-7,39.9-20.9,54.3c-14.2,14.9-32.5,22.4-54.9,22.4
			C730.6,154.8,712.3,147.3,697.8,132.3z M786.8,112.1c8.3-8.8,12.4-20.1,12.4-34c0-13.8-4.1-25.1-12.4-33.8
			c-8.7-9.1-20-13.6-34-13.6c-14.1,0-25.4,4.5-34,13.6c-8.3,8.7-12.4,19.9-12.4,33.8c0,13.8,4.1,25.2,12.4,34
			c8.4,8.9,19.7,13.4,34,13.4C767.4,125.6,778.7,121.1,786.8,112.1z"/>
		<path class="st0" d="M853.1,3.7h29.7v99.4L956,3.7h28.5v149.9h-29.7V53.7l-73,99.9h-28.7V3.7z"/>
	</g>
	<g>
		<path class="st1" d="M33.3,170.8c-11.5-8-17.3-19.7-17.3-35c0-6.4,1.5-12.2,4.6-17.5s7.5-9.8,13.3-13.6c5.4-3.7,10.9-6.3,16.5-7.9
			c7.9-2.4,13.8-4.1,17.7-5.1l17.1-4.1c4.5-1.1,9.2-2.6,14-4.5c3.7-1.5,6.4-3.2,8.3-5.1c1.2-1.2,1.8-2.3,1.8-3.3
			c0-2.3-0.3-4.5-1-6.5c-0.4-1.5-1.4-3-3.1-4.5c-2-1.6-4.9-3.1-8.5-4.3c-3.9-1.4-9-2-15.3-2c-6.2,0-11.4,0.6-15.5,1.8
			c-6,1.8-10.1,4.1-12.4,6.9c-2.3,2.8-3.7,6-4.1,9.4l-0.8,6.3H18.9l0.4-7.5c0.5-12.9,6-23.5,16.3-31.9C46.4,33.5,61.3,29,80.1,29
			c18.7,0,33,4,42.9,12c10.2,8.4,15.3,19.3,15.3,32.5c0,9.9-3,17.8-8.9,23.6c-4.7,4.9-11.3,9.1-19.5,12.6c-8.3,3.5-16.1,6-23.4,7.3
			c-8,1.6-15.3,3.5-22,5.5c-6.2,1.9-11.3,4.2-15.3,6.9c-1.4,0.9-2.3,2-2.8,3c-0.5,1.1-0.8,2.4-0.8,4.1c0,2.6,0.5,5,1.6,7.3
			s3.9,4.4,8.4,6.4s11.5,2.9,20.8,2.9c11.1,0,19.7-1.8,25.8-5.3c6.2-3.7,9.6-8.9,10-15.7l0.4-6.7h30.5l-0.8,7.9
			c-1.6,15.3-7.5,27-17.7,35.2c-11.1,8.9-27.1,13.4-48,13.4C58.7,182.2,44.2,178.4,33.3,170.8z"/>
		<path class="st1" d="M185.8,164.5c-12-12.3-18.1-28.4-18.1-48.4V31.7h29.7v84.8c0,12.3,3.6,22,10.8,28.9
			c5.8,5.7,13.9,8.5,24.2,8.5s18.5-2.8,24.6-8.5c7.2-6.8,10.8-16.4,10.8-28.9V31.7h29.5v84.4c0,19.8-6,35.9-18.1,48.4
			s-27.7,18.7-46.8,18.7C213.6,183.3,198,177,185.8,164.5z"/>
		<path class="st1" d="M312.5,31.7h32.1l42.1,106l42.1-106h32.3l-60.8,149.9H373L312.5,31.7z"/>
		<path class="st1" d="M478.5,31.7h29.7v149.9h-29.7V31.7z"/>
		<path class="st1" d="M576.1,176.5c-8.5-3.5-16-8.5-22.4-15c-14.1-14.5-21.2-32.8-21.2-54.9s7-40.3,21.2-54.7
			c6.8-6.8,14.2-11.8,22.4-15c8.1-3.4,16.8-5.1,26-5.1h64.3v149.9h-64.3C592.9,181.6,584.2,179.9,576.1,176.5z M636.7,152.7V60.4
			h-34c-11.9,0-21.7,4.5-29.3,13.4c-7.5,8.7-11.2,19.6-11.2,32.7c0,13.3,3.7,24.3,11.2,32.9c7.5,8.8,17.2,13.2,29.3,13.2h34V152.7z"
			/>
		<path class="st1" d="M711.8,160.3c-14-14.4-20.9-32.4-20.9-54.1c0-21.6,7-39.6,21.2-54.1c14.2-14.9,32.5-22.4,54.9-22.4
			s40.7,7.5,54.9,22.4c14,14.4,20.9,32.4,20.9,54.1c0,21.8-7,39.9-20.9,54.3c-14.2,14.9-32.5,22.4-54.9,22.4
			C744.6,182.8,726.3,175.3,711.8,160.3z M800.8,140.1c8.3-8.8,12.4-20.1,12.4-34c0-13.8-4.1-25.1-12.4-33.8
			c-8.7-9.1-20-13.6-34-13.6c-14.1,0-25.4,4.5-34,13.6c-8.3,8.7-12.4,19.9-12.4,33.8c0,13.8,4.1,25.2,12.4,34
			c8.4,8.9,19.7,13.4,34,13.4C781.4,153.6,792.7,149.1,800.8,140.1z"/>
		<path class="st1" d="M867.1,31.7h29.7v99.4L970,31.7h28.5v149.9h-29.7V81.7l-73,99.9h-28.7V31.7z"/>
	</g>
	<g>
		<path d="M26.3,156.8c-11.5-8-17.3-19.7-17.3-35c0-6.4,1.5-12.2,4.6-17.5s7.5-9.8,13.3-13.6c5.4-3.7,10.9-6.3,16.5-7.9
			c7.9-2.4,13.8-4.1,17.7-5.1l17.1-4.1c4.5-1.1,9.2-2.6,14-4.5c3.7-1.5,6.4-3.2,8.3-5.1c1.2-1.2,1.8-2.3,1.8-3.3
			c0-2.3-0.3-4.5-1-6.5c-0.4-1.5-1.4-3-3.1-4.5c-2-1.6-4.9-3.1-8.5-4.3c-3.9-1.4-9-2-15.3-2c-6.2,0-11.4,0.6-15.5,1.8
			c-6,1.8-10.1,4.1-12.4,6.9s-3.7,6-4.1,9.4l-0.8,6.3H11.9l0.4-7.5c0.5-12.9,6-23.5,16.3-31.9C39.4,19.5,54.3,15,73.1,15
			c18.7,0,33,4,42.9,12c10.2,8.4,15.3,19.3,15.3,32.5c0,9.9-3,17.8-8.9,23.6c-4.7,4.9-11.3,9.1-19.5,12.6c-8.3,3.5-16.1,6-23.4,7.3
			c-8,1.6-15.3,3.5-22,5.5c-6.2,1.9-11.3,4.2-15.3,6.9c-1.4,0.9-2.3,2-2.8,3c-0.5,1.1-0.8,2.4-0.8,4.1c0,2.6,0.5,5,1.6,7.3
			s3.9,4.4,8.4,6.4s11.5,2.9,20.8,2.9c11.1,0,19.7-1.8,25.8-5.3c6.2-3.7,9.6-8.9,10-15.7l0.4-6.7h30.5l-0.8,7.9
			c-1.6,15.3-7.5,27-17.7,35.2c-11.1,8.9-27.1,13.4-48,13.4C51.7,168.2,37.2,164.4,26.3,156.8z"/>
		<path d="M178.8,150.5c-12-12.3-18.1-28.4-18.1-48.4V17.7h29.7v84.8c0,12.3,3.6,22,10.8,28.9c5.8,5.7,13.9,8.5,24.2,8.5
			s18.5-2.8,24.6-8.5c7.2-6.8,10.8-16.4,10.8-28.9V17.7h29.5v84.4c0,19.8-6,35.9-18.1,48.4s-27.7,18.7-46.8,18.7
			C206.6,169.3,191,163,178.8,150.5z"/>
		<path d="M305.5,17.7h32.1l42.1,106l42.1-106h32.3l-60.8,149.9H366L305.5,17.7z"/>
		<path d="M471.5,17.7h29.7v149.9h-29.7V17.7z"/>
		<path d="M569.1,162.5c-8.5-3.5-16-8.5-22.4-15c-14.1-14.5-21.2-32.8-21.2-54.9s7-40.3,21.2-54.7c6.8-6.8,14.2-11.8,22.4-15
			c8.1-3.4,16.8-5.1,26-5.1h64.3v149.9h-64.3C585.9,167.6,577.2,165.9,569.1,162.5z M629.7,138.7V46.4h-34
			c-11.9,0-21.7,4.5-29.3,13.4c-7.5,8.7-11.2,19.6-11.2,32.7c0,13.3,3.7,24.3,11.2,32.9c7.5,8.8,17.2,13.2,29.3,13.2L629.7,138.7
			L629.7,138.7z"/>
		<path d="M704.8,146.3c-14-14.4-20.9-32.4-20.9-54.1c0-21.6,7-39.6,21.2-54.1c14.2-14.9,32.5-22.4,54.9-22.4s40.7,7.5,54.9,22.4
			c14,14.4,20.9,32.4,20.9,54.1c0,21.8-7,39.9-20.9,54.3c-14.2,14.9-32.5,22.4-54.9,22.4C737.6,168.8,719.3,161.3,704.8,146.3z
			 M793.8,126.1c8.3-8.8,12.4-20.1,12.4-34c0-13.8-4.1-25.1-12.4-33.8c-8.7-9.1-20-13.6-34-13.6c-14.1,0-25.4,4.5-34,13.6
			c-8.3,8.7-12.4,19.9-12.4,33.8c0,13.8,4.1,25.2,12.4,34c8.4,8.9,19.7,13.4,34,13.4C774.4,139.6,785.7,135.1,793.8,126.1z"/>
		<path d="M860.1,17.7h29.7v99.4L963,17.7h28.5v149.9h-29.7V67.7l-73,99.9h-28.7V17.7z"/>
	</g>
</g>
</svg>
