<?xml version="1.0" encoding="utf-8"?>
<!-- Generator: Adobe Illustrator 19.2.1, SVG Export Plug-In . SVG Version: 6.00 Build 0)  -->
<svg version="1.1" id="Capa_1" xmlns="http://www.w3.org/2000/svg" xmlns:xlink="http://www.w3.org/1999/xlink" x="0px" y="0px"
	 viewBox="0 0 1001.5 184.2" style="enable-background:new 0 0 1001.5 184.2;" xml:space="preserve">
<style type="text/css">
	.st0{fill:#4CBEEE;}
	.st1{fill:#E72884;}
	.st2{fill:#FFFFFF;}
</style>
<g>
	<g>
		<path class="st0" d="M17.3,141.8c-11.5-8-17.3-19.7-17.3-35c0-6.4,1.5-12.2,4.6-17.5s7.5-9.8,13.3-13.6c5.4-3.7,10.9-6.3,16.5-7.9
			c7.9-2.4,13.8-4.1,17.7-5.1l17.1-4.1c4.5-1.1,9.2-2.6,14-4.5c3.7-1.5,6.4-3.2,8.3-5.1c1.2-1.2,1.8-2.3,1.8-3.3
			c0-2.3-0.3-4.5-1-6.5c-0.4-1.5-1.4-3-3.1-4.5c-2-1.6-4.9-3.1-8.5-4.3c-3.9-1.4-9-2-15.3-2c-6.2,0-11.4,0.6-15.5,1.8
			c-6,1.8-10.1,4.1-12.4,6.9s-3.7,6-4.1,9.4l-0.8,6.3H2.9l0.4-7.5c0.5-12.9,6-23.5,16.3-31.9C30.4,4.5,45.3,0,64.1,0
			c18.7,0,33,4,42.9,12c10.2,8.4,15.3,19.3,15.3,32.5c0,9.9-3,17.8-8.9,23.6c-4.7,4.9-11.3,9.1-19.5,12.6c-8.3,3.5-16.1,6-23.4,7.3
			c-8,1.6-15.3,3.5-22,5.5c-6.2,1.9-11.3,4.2-15.3,6.9c-1.4,0.9-2.3,2-2.8,3c-0.5,1.1-0.8,2.4-0.8,4.1c0,2.6,0.5,5,1.6,7.3
			s3.9,4.4,8.4,6.4s11.5,2.9,20.8,2.9c11.1,0,19.7-1.8,25.8-5.3c6.2-3.7,9.6-8.9,10-15.7l0.4-6.7h30.5l-0.8,7.9
			c-1.6,15.3-7.5,27-17.7,35.2c-11.1,8.9-27.1,13.4-48,13.4C42.7,153.2,28.2,149.4,17.3,141.8z"/>
		<path class="st0" d="M169.8,135.5c-12-12.3-18.1-28.4-18.1-48.4V2.7h29.7v84.8c0,12.3,3.6,22,10.8,28.9c5.8,5.7,13.9,8.5,24.2,8.5
			c10.3,0,18.5-2.8,24.6-8.5c7.2-6.8,10.8-16.4,10.8-28.9V2.7h29.5v84.4c0,19.8-6,35.9-18.1,48.4c-12.1,12.5-27.7,18.7-46.8,18.7
			C197.6,154.3,182,148,169.8,135.5z"/>
		<path class="st0" d="M299,3.5h32.1l42.1,106l42.1-106h32.3l-60.8,149.9h-27.3L299,3.5z"/>
		<path class="st0" d="M462.5,2.7h29.7v149.9h-29.7V2.7z"/>
		<path class="st0" d="M560.1,147.5c-8.5-3.5-16-8.5-22.4-15c-14.1-14.5-21.2-32.8-21.2-54.9s7-40.3,21.2-54.7
			c6.8-6.8,14.2-11.8,22.4-15c8.1-3.4,16.8-5.1,26-5.1h64.3v149.9h-64.3C576.9,152.6,568.2,150.9,560.1,147.5z M620.7,123.7V31.4
			h-34c-11.9,0-21.7,4.5-29.3,13.4c-7.5,8.7-11.2,19.6-11.2,32.7c0,13.3,3.7,24.3,11.2,32.9c7.5,8.8,17.2,13.2,29.3,13.2h34V123.7z"
			/>
		<path class="st0" d="M695.8,131.3c-14-14.4-20.9-32.4-20.9-54.1c0-21.6,7-39.6,21.2-54.1C710.3,8.2,728.6,0.7,751,0.7
			s40.7,7.5,54.9,22.4c14,14.4,20.9,32.4,20.9,54.1c0,21.8-7,39.9-20.9,54.3c-14.2,14.9-32.5,22.4-54.9,22.4
			C728.6,153.8,710.3,146.3,695.8,131.3z M784.8,111.1c8.3-8.8,12.4-20.1,12.4-34c0-13.8-4.1-25.1-12.4-33.8
			c-8.7-9.1-20-13.6-34-13.6c-14.1,0-25.4,4.5-34,13.6c-8.3,8.7-12.4,19.9-12.4,33.8c0,13.8,4.1,25.2,12.4,34
			c8.4,8.9,19.7,13.4,34,13.4C765.4,124.6,776.7,120.1,784.8,111.1z"/>
		<path class="st0" d="M851.1,2.7h29.7v99.4L954,2.7h28.5v149.9h-29.7V52.7l-73,99.9h-28.7V2.7z"/>
	</g>
	<g>
		<path class="st1" d="M36.3,171.8c-11.5-8-17.3-19.7-17.3-35c0-6.4,1.5-12.2,4.6-17.5c3.1-5.3,7.5-9.8,13.3-13.6
			c5.4-3.7,10.9-6.3,16.5-7.9c7.9-2.4,13.8-4.1,17.7-5.1l17.1-4.1c4.5-1.1,9.2-2.6,14-4.5c3.7-1.5,6.4-3.2,8.3-5.1
			c1.2-1.2,1.8-2.3,1.8-3.3c0-2.3-0.3-4.5-1-6.5c-0.4-1.5-1.4-3-3.1-4.5c-2-1.6-4.9-3.1-8.5-4.3c-3.9-1.4-9-2-15.3-2
			c-6.2,0-11.4,0.6-15.5,1.8c-6,1.8-10.1,4.1-12.4,6.9s-3.7,6-4.1,9.4l-0.8,6.3H21.9l0.4-7.5c0.5-12.9,6-23.5,16.3-31.9
			C49.4,34.5,64.3,30,83.1,30c18.7,0,33,4,42.9,12c10.2,8.4,15.3,19.3,15.3,32.5c0,9.9-3,17.8-8.9,23.6c-4.7,4.9-11.3,9.1-19.5,12.6
			c-8.3,3.5-16.1,6-23.4,7.3c-8,1.6-15.3,3.5-22,5.5c-6.2,1.9-11.3,4.2-15.3,6.9c-1.4,0.9-2.3,2-2.8,3c-0.5,1.1-0.8,2.4-0.8,4.1
			c0,2.6,0.5,5,1.6,7.3s3.9,4.4,8.4,6.4s11.5,2.9,20.8,2.9c11.1,0,19.7-1.8,25.8-5.3c6.2-3.7,9.6-8.9,10-15.7l0.4-6.7h30.5l-0.8,7.9
			c-1.6,15.3-7.5,27-17.7,35.2c-11.1,8.9-27.1,13.4-48,13.4C61.7,183.2,47.2,179.4,36.3,171.8z"/>
		<path class="st1" d="M188.8,165.5c-12-12.3-18.1-28.4-18.1-48.4V32.7h29.7v84.8c0,12.3,3.6,22,10.8,28.9
			c5.8,5.7,13.9,8.5,24.2,8.5c10.3,0,18.5-2.8,24.6-8.5c7.2-6.8,10.8-16.4,10.8-28.9V32.7h29.5v84.4c0,19.8-6,35.9-18.1,48.4
			s-27.7,18.7-46.8,18.7C216.6,184.3,201,178,188.8,165.5z"/>
		<path class="st1" d="M315.5,32.7h32.1l42.1,106l42.1-106h32.3l-60.8,149.9H376L315.5,32.7z"/>
		<path class="st1" d="M481.5,32.7h29.7v149.9h-29.7V32.7z"/>
		<path class="st1" d="M579.1,177.5c-8.5-3.5-16-8.5-22.4-15c-14.1-14.5-21.2-32.8-21.2-54.9s7-40.3,21.2-54.7
			c6.8-6.8,14.2-11.8,22.4-15c8.1-3.4,16.8-5.1,26-5.1h64.3v149.9h-64.3C595.9,182.6,587.2,180.9,579.1,177.5z M639.7,153.7V61.4
			h-34c-11.9,0-21.7,4.5-29.3,13.4c-7.5,8.7-11.2,19.6-11.2,32.7c0,13.3,3.7,24.3,11.2,32.9c7.5,8.8,17.2,13.2,29.3,13.2h34V153.7z"
			/>
		<path class="st1" d="M714.8,161.3c-14-14.4-20.9-32.4-20.9-54.1c0-21.6,7-39.6,21.2-54.1c14.2-14.9,32.5-22.4,54.9-22.4
			s40.7,7.5,54.9,22.4c14,14.4,20.9,32.4,20.9,54.1c0,21.8-7,39.9-20.9,54.3c-14.2,14.9-32.5,22.4-54.9,22.4
			C747.6,183.8,729.3,176.3,714.8,161.3z M803.8,141.1c8.3-8.8,12.4-20.1,12.4-34c0-13.8-4.1-25.1-12.4-33.8
			c-8.7-9.1-20-13.6-34-13.6c-14.1,0-25.4,4.5-34,13.6c-8.3,8.7-12.4,19.9-12.4,33.8c0,13.8,4.1,25.2,12.4,34
			c8.4,8.9,19.7,13.4,34,13.4C784.4,154.6,795.7,150.1,803.8,141.1z"/>
		<path class="st1" d="M870.1,32.7h29.7v99.4L973,32.7h28.5v149.9h-29.7V82.7l-73,99.9h-28.7V32.7z"/>
	</g>
	<g>
		<path class="st2" d="M28.3,156.8c-11.5-8-17.3-19.7-17.3-35c0-6.4,1.5-12.2,4.6-17.5s7.5-9.8,13.3-13.6c5.4-3.7,10.9-6.3,16.5-7.9
			c7.9-2.4,13.8-4.1,17.7-5.1l17.1-4.1c4.5-1.1,9.2-2.6,14-4.5c3.7-1.5,6.4-3.2,8.3-5.1c1.2-1.2,1.8-2.3,1.8-3.3
			c0-2.3-0.3-4.5-1-6.5c-0.4-1.5-1.4-3-3.1-4.5c-2-1.6-4.9-3.1-8.5-4.3c-3.9-1.4-9-2-15.3-2c-6.2,0-11.4,0.6-15.5,1.8
			c-6,1.8-10.1,4.1-12.4,6.9s-3.7,6-4.1,9.4l-0.8,6.3H13.9l0.4-7.5c0.5-12.9,6-23.5,16.3-31.9C41.4,19.5,56.3,15,75.1,15
			c18.7,0,33,4,42.9,12c10.2,8.4,15.3,19.3,15.3,32.5c0,9.9-3,17.8-8.9,23.6c-4.7,4.9-11.3,9.1-19.5,12.6c-8.3,3.5-16.1,6-23.4,7.3
			c-8,1.6-15.3,3.5-22,5.5c-6.2,1.9-11.3,4.2-15.3,6.9c-1.4,0.9-2.3,2-2.8,3c-0.5,1.1-0.8,2.4-0.8,4.1c0,2.6,0.5,5,1.6,7.3
			s3.9,4.4,8.4,6.4s11.5,2.9,20.8,2.9c11.1,0,19.7-1.8,25.8-5.3c6.2-3.7,9.6-8.9,10-15.7l0.4-6.7h30.5l-0.8,7.9
			c-1.6,15.3-7.5,27-17.7,35.2c-11.1,8.9-27.1,13.4-48,13.4C53.7,168.2,39.2,164.4,28.3,156.8z"/>
		<path class="st2" d="M180.8,150.5c-12-12.3-18.1-28.4-18.1-48.4V17.7h29.7v84.8c0,12.3,3.6,22,10.8,28.9
			c5.8,5.7,13.9,8.5,24.2,8.5c10.3,0,18.5-2.8,24.6-8.5c7.2-6.8,10.8-16.4,10.8-28.9V17.7h29.5v84.4c0,19.8-6,35.9-18.1,48.4
			c-12.1,12.5-27.7,18.7-46.8,18.7C208.6,169.3,193,163,180.8,150.5z"/>
		<path class="st2" d="M307.5,17.7h32.1l42.1,106l42.1-106h32.3l-60.8,149.9H368L307.5,17.7z"/>
		<path class="st2" d="M473.5,17.7h29.7v149.9h-29.7V17.7z"/>
		<path class="st2" d="M571.1,162.5c-8.5-3.5-16-8.5-22.4-15c-14.1-14.5-21.2-32.8-21.2-54.9s7-40.3,21.2-54.7
			c6.8-6.8,14.2-11.8,22.4-15c8.1-3.4,16.8-5.1,26-5.1h64.3v149.9h-64.3C587.9,167.6,579.2,165.9,571.1,162.5z M631.7,138.7V46.4
			h-34c-11.9,0-21.7,4.5-29.3,13.4c-7.5,8.7-11.2,19.6-11.2,32.7c0,13.3,3.7,24.3,11.2,32.9c7.5,8.8,17.2,13.2,29.3,13.2h34V138.7z"
			/>
		<path class="st2" d="M706.8,146.3c-14-14.4-20.9-32.4-20.9-54.1c0-21.6,7-39.6,21.2-54.1c14.2-14.9,32.5-22.4,54.9-22.4
			s40.7,7.5,54.9,22.4c14,14.4,20.9,32.4,20.9,54.1c0,21.8-7,39.9-20.9,54.3c-14.2,14.9-32.5,22.4-54.9,22.4
			C739.6,168.8,721.3,161.3,706.8,146.3z M795.8,126.1c8.3-8.8,12.4-20.1,12.4-34c0-13.8-4.1-25.1-12.4-33.8
			c-8.7-9.1-20-13.6-34-13.6c-14.1,0-25.4,4.5-34,13.6c-8.3,8.7-12.4,19.9-12.4,33.8c0,13.8,4.1,25.2,12.4,34
			c8.4,8.9,19.7,13.4,34,13.4C776.4,139.6,787.7,135.1,795.8,126.1z"/>
		<path class="st2" d="M862.1,17.7h29.7v99.4L965,17.7h28.5v149.9h-29.7V67.7l-73,99.9h-28.7V17.7z"/>
	</g>
</g>
</svg>
