<svg id="Capa_1" data-name="Capa 1" xmlns="http://www.w3.org/2000/svg" viewBox="0 0 1001.5 184.2"><defs><style>.cls-1{opacity:0.67;}.cls-2{fill:#24ece7;}.cls-3{fill:#f62b52;}.cls-4{fill:#fff;}</style></defs><title>forra</title><g class="cls-1"><path class="cls-2" d="M17.3,141.8C5.8,133.8,0,122.1,0,106.8A33.91,33.91,0,0,1,4.6,89.3,41,41,0,0,1,17.9,75.7a56.65,56.65,0,0,1,16.5-7.9q11.85-3.6,17.7-5.1l17.1-4.1a107.66,107.66,0,0,0,14-4.5A24.64,24.64,0,0,0,91.5,49a5,5,0,0,0,1.8-3.3,19.68,19.68,0,0,0-1-6.5,9.41,9.41,0,0,0-3.1-4.5,28,28,0,0,0-8.5-4.3c-3.9-1.4-9-2-15.3-2a56.37,56.37,0,0,0-15.5,1.8c-6,1.8-10.1,4.1-12.4,6.9a18.06,18.06,0,0,0-4.1,9.4l-.8,6.3H2.9l.4-7.5c.5-12.9,6-23.5,16.3-31.9C30.4,4.5,45.3,0,64.1,0s33,4,42.9,12c10.2,8.4,15.3,19.3,15.3,32.5,0,9.9-3,17.8-8.9,23.6-4.7,4.9-11.3,9.1-19.5,12.6A111.19,111.19,0,0,1,70.5,88c-8,1.6-15.3,3.5-22,5.5a57.46,57.46,0,0,0-15.3,6.9,7.79,7.79,0,0,0-2.8,3,9.64,9.64,0,0,0-.8,4.1,16.56,16.56,0,0,0,1.6,7.3c1.1,2.3,3.9,4.4,8.4,6.4s11.5,2.9,20.8,2.9c11.1,0,19.7-1.8,25.8-5.3,6.2-3.7,9.6-8.9,10-15.7l.4-6.7h30.5l-.8,7.9c-1.6,15.3-7.5,27-17.7,35.2Q92,152.85,60.6,152.9C42.7,153.2,28.2,149.4,17.3,141.8Z"/><path class="cls-2" d="M169.8,135.5c-12-12.3-18.1-28.4-18.1-48.4V2.7h29.7V87.5c0,12.3,3.6,22,10.8,28.9,5.8,5.7,13.9,8.5,24.2,8.5s18.5-2.8,24.6-8.5c7.2-6.8,10.8-16.4,10.8-28.9V2.7h29.5V87.1q0,29.7-18.1,48.4t-46.8,18.7C197.6,154.3,182,148,169.8,135.5Z"/><path class="cls-2" d="M296.5,2.7h32.1l42.1,106,42.1-106h32.3L384.3,152.6H357Z"/><path class="cls-2" d="M462.5,2.7h29.7V152.6H462.5Z"/><path class="cls-2" d="M560.1,147.5a66.85,66.85,0,0,1-22.4-15q-21.15-21.75-21.2-54.9c0-22.1,7-40.3,21.2-54.7a64.93,64.93,0,0,1,22.4-15,66.61,66.61,0,0,1,26-5.1h64.3V152.7H586.1A68.53,68.53,0,0,1,560.1,147.5Zm60.6-23.8V31.4h-34c-11.9,0-21.7,4.5-29.3,13.4-7.5,8.7-11.2,19.6-11.2,32.7,0,13.3,3.7,24.3,11.2,32.9,7.5,8.8,17.2,13.2,29.3,13.2h34Z"/><path class="cls-2" d="M695.8,131.3c-14-14.4-20.9-32.4-20.9-54.1s7-39.6,21.2-54.1Q717.4.75,751,.7t54.9,22.4c14,14.4,20.9,32.4,20.9,54.1s-7,39.9-20.9,54.3q-21.3,22.35-54.9,22.4C728.6,153.8,710.3,146.3,695.8,131.3Zm89-20.2c8.3-8.8,12.4-20.1,12.4-34S793.1,52,784.8,43.3c-8.7-9.1-20-13.6-34-13.6s-25.4,4.5-34,13.6c-8.3,8.7-12.4,19.9-12.4,33.8s4.1,25.2,12.4,34,19.7,13.4,34,13.4C765.4,124.6,776.7,120.1,784.8,111.1Z"/><path class="cls-2" d="M851.1,2.7h29.7v99.4L954,2.7h28.5V152.6H952.8V52.7l-73,99.9H851.1Z"/></g><g class="cls-1"><path class="cls-3" d="M36.3,171.8c-11.5-8-17.3-19.7-17.3-35a33.91,33.91,0,0,1,4.6-17.5,41,41,0,0,1,13.3-13.6,56.65,56.65,0,0,1,16.5-7.9q11.85-3.6,17.7-5.1l17.1-4.1a107.66,107.66,0,0,0,14-4.5,24.64,24.64,0,0,0,8.3-5.1,5,5,0,0,0,1.8-3.3,19.68,19.68,0,0,0-1-6.5,9.41,9.41,0,0,0-3.1-4.5,28,28,0,0,0-8.5-4.3c-3.9-1.4-9-2-15.3-2a56.37,56.37,0,0,0-15.5,1.8c-6,1.8-10.1,4.1-12.4,6.9a18.06,18.06,0,0,0-4.1,9.4l-.8,6.3H21.9l.4-7.5c.5-12.9,6-23.5,16.3-31.9C49.4,34.5,64.3,30,83.1,30s33,4,42.9,12c10.2,8.4,15.3,19.3,15.3,32.5,0,9.9-3,17.8-8.9,23.6-4.7,4.9-11.3,9.1-19.5,12.6A111.19,111.19,0,0,1,89.5,118c-8,1.6-15.3,3.5-22,5.5a57.46,57.46,0,0,0-15.3,6.9,7.79,7.79,0,0,0-2.8,3,9.64,9.64,0,0,0-.8,4.1,16.56,16.56,0,0,0,1.6,7.3c1.1,2.3,3.9,4.4,8.4,6.4s11.5,2.9,20.8,2.9c11.1,0,19.7-1.8,25.8-5.3,6.2-3.7,9.6-8.9,10-15.7l.4-6.7h30.5l-.8,7.9c-1.6,15.3-7.5,27-17.7,35.2q-16.65,13.35-48,13.4C61.7,183.2,47.2,179.4,36.3,171.8Z"/><path class="cls-3" d="M188.8,165.5c-12-12.3-18.1-28.4-18.1-48.4V32.7h29.7v84.8c0,12.3,3.6,22,10.8,28.9,5.8,5.7,13.9,8.5,24.2,8.5s18.5-2.8,24.6-8.5c7.2-6.8,10.8-16.4,10.8-28.9V32.7h29.5v84.4q0,29.7-18.1,48.4t-46.8,18.7C216.6,184.3,201,178,188.8,165.5Z"/><path class="cls-3" d="M315.5,32.7h32.1l42.1,106,42.1-106h32.3L403.3,182.6H376Z"/><path class="cls-3" d="M481.5,32.7h29.7V182.6H481.5Z"/><path class="cls-3" d="M579.1,177.5a66.85,66.85,0,0,1-22.4-15q-21.15-21.75-21.2-54.9c0-22.1,7-40.3,21.2-54.7a64.93,64.93,0,0,1,22.4-15,66.61,66.61,0,0,1,26-5.1h64.3V182.7H605.1A68.53,68.53,0,0,1,579.1,177.5Zm60.6-23.8V61.4h-34c-11.9,0-21.7,4.5-29.3,13.4-7.5,8.7-11.2,19.6-11.2,32.7,0,13.3,3.7,24.3,11.2,32.9,7.5,8.8,17.2,13.2,29.3,13.2h34Z"/><path class="cls-3" d="M714.8,161.3c-14-14.4-20.9-32.4-20.9-54.1s7-39.6,21.2-54.1Q736.4,30.75,770,30.7t54.9,22.4c14,14.4,20.9,32.4,20.9,54.1s-7,39.9-20.9,54.3q-21.3,22.35-54.9,22.4C747.6,183.8,729.3,176.3,714.8,161.3Zm89-20.2c8.3-8.8,12.4-20.1,12.4-34S812.1,82,803.8,73.3c-8.7-9.1-20-13.6-34-13.6s-25.4,4.5-34,13.6c-8.3,8.7-12.4,19.9-12.4,33.8s4.1,25.2,12.4,34,19.7,13.4,34,13.4C784.4,154.6,795.7,150.1,803.8,141.1Z"/><path class="cls-3" d="M870.1,32.7h29.7v99.4L973,32.7h28.5V182.6H971.8V82.7l-73,99.9H870.1Z"/></g><path class="cls-4" d="M28.3,156.8c-11.5-8-17.3-19.7-17.3-35a33.91,33.91,0,0,1,4.6-17.5A41,41,0,0,1,28.9,90.7a56.65,56.65,0,0,1,16.5-7.9q11.85-3.6,17.7-5.1l17.1-4.1a107.66,107.66,0,0,0,14-4.5,24.64,24.64,0,0,0,8.3-5.1,5,5,0,0,0,1.8-3.3,19.68,19.68,0,0,0-1-6.5,9.41,9.41,0,0,0-3.1-4.5,28,28,0,0,0-8.5-4.3c-3.9-1.4-9-2-15.3-2a56.37,56.37,0,0,0-15.5,1.8c-6,1.8-10.1,4.1-12.4,6.9a18.06,18.06,0,0,0-4.1,9.4l-.8,6.3H13.9l.4-7.5c.5-12.9,6-23.5,16.3-31.9C41.4,19.5,56.3,15,75.1,15s33,4,42.9,12c10.2,8.4,15.3,19.3,15.3,32.5,0,9.9-3,17.8-8.9,23.6-4.7,4.9-11.3,9.1-19.5,12.6A111.19,111.19,0,0,1,81.5,103c-8,1.6-15.3,3.5-22,5.5a57.46,57.46,0,0,0-15.3,6.9,7.79,7.79,0,0,0-2.8,3,9.64,9.64,0,0,0-.8,4.1,16.56,16.56,0,0,0,1.6,7.3c1.1,2.3,3.9,4.4,8.4,6.4s11.5,2.9,20.8,2.9c11.1,0,19.7-1.8,25.8-5.3,6.2-3.7,9.6-8.9,10-15.7l.4-6.7h30.5l-.8,7.9c-1.6,15.3-7.5,27-17.7,35.2q-16.65,13.35-48,13.4C53.7,168.2,39.2,164.4,28.3,156.8Z"/><path class="cls-4" d="M180.8,150.5c-12-12.3-18.1-28.4-18.1-48.4V17.7h29.7v84.8c0,12.3,3.6,22,10.8,28.9,5.8,5.7,13.9,8.5,24.2,8.5s18.5-2.8,24.6-8.5c7.2-6.8,10.8-16.4,10.8-28.9V17.7h29.5v84.4q0,29.7-18.1,48.4t-46.8,18.7C208.6,169.3,193,163,180.8,150.5Z"/><path class="cls-4" d="M307.5,17.7h32.1l42.1,106,42.1-106h32.3L395.3,167.6H368Z"/><path class="cls-4" d="M473.5,17.7h29.7V167.6H473.5Z"/><path class="cls-4" d="M571.1,162.5a66.85,66.85,0,0,1-22.4-15q-21.15-21.75-21.2-54.9c0-22.1,7-40.3,21.2-54.7a64.93,64.93,0,0,1,22.4-15,66.61,66.61,0,0,1,26-5.1h64.3V167.7H597.1A68.53,68.53,0,0,1,571.1,162.5Zm60.6-23.8V46.4h-34c-11.9,0-21.7,4.5-29.3,13.4-7.5,8.7-11.2,19.6-11.2,32.7,0,13.3,3.7,24.3,11.2,32.9,7.5,8.8,17.2,13.2,29.3,13.2h34Z"/><path class="cls-4" d="M706.8,146.3c-14-14.4-20.9-32.4-20.9-54.1s7-39.6,21.2-54.1Q728.4,15.75,762,15.7t54.9,22.4c14,14.4,20.9,32.4,20.9,54.1s-7,39.9-20.9,54.3q-21.3,22.35-54.9,22.4C739.6,168.8,721.3,161.3,706.8,146.3Zm89-20.2c8.3-8.8,12.4-20.1,12.4-34S804.1,67,795.8,58.3c-8.7-9.1-20-13.6-34-13.6s-25.4,4.5-34,13.6c-8.3,8.7-12.4,19.9-12.4,33.8s4.1,25.2,12.4,34,19.7,13.4,34,13.4C776.4,139.6,787.7,135.1,795.8,126.1Z"/><path class="cls-4" d="M862.1,17.7h29.7v99.4L965,17.7h28.5V167.6H963.8V67.7l-73,99.9H862.1Z"/></svg>