<?xml version="1.0" encoding="utf-8"?>
<!-- Generator: Adobe Illustrator 19.2.1, SVG Export Plug-In . SVG Version: 6.00 Build 0)  -->
<svg version="1.1" id="Capa_1" xmlns:x="&ns_extend;" xmlns:i="&ns_ai;" xmlns:graph="&ns_graphs;"
	 xmlns="http://www.w3.org/2000/svg" xmlns:xlink="http://www.w3.org/1999/xlink" x="0px" y="0px" viewBox="0 0 431.5 81.3"
	 style="enable-background:new 0 0 431.5 81.3;" xml:space="preserve">
<style type="text/css">
	.st0{fill:none;stroke:#000000;stroke-width:6;stroke-miterlimit:10;}
</style>
<metadata>
	<sfw  xmlns="&ns_sfw;">
		<slices></slices>
		<sliceSourceBounds  bottomLeftOrigin="true" height="72.3" width="428.5" x="2" y="5"></sliceSourceBounds>
	</sfw>
</metadata>
<title>suvidon-black</title>
<path class="st0" d="M12.4,68C7.5,64.5,5,59.5,5,52.9c0-2.6,0.7-5.2,2-7.5c1.4-2.4,3.4-4.4,5.7-5.9c2.2-1.5,4.6-2.6,7.1-3.4
	c3.4-1,5.9-1.8,7.6-2.2l7.3-1.7c2-0.5,4-1.2,6-1.9c1.3-0.5,2.5-1.2,3.6-2.2c0.4-0.3,0.7-0.8,0.8-1.4c0-1-0.1-1.9-0.4-2.8
	c-0.3-0.7-0.7-1.4-1.3-1.9c-1.1-0.8-2.3-1.4-3.7-1.8c-2.1-0.6-4.3-0.9-6.6-0.9c-2.2-0.1-4.5,0.2-6.6,0.8c-2.6,0.8-4.3,1.8-5.3,3
	c-1,1.1-1.6,2.5-1.8,4l-0.4,2.7H6.3l0.2-3.2c0.2-5.4,2.7-10.4,7-13.7C18.2,8.9,24.5,7,32.6,7s14.2,1.7,18.5,5.2
	c4.3,3.4,6.7,8.6,6.5,14c0,4.3-1.3,7.6-3.8,10.1c-2.4,2.3-5.3,4.2-8.4,5.4c-3.2,1.4-6.6,2.5-10.1,3.2c-3.2,0.6-6.3,1.4-9.4,2.4
	c-2.3,0.7-4.5,1.7-6.6,3c-0.5,0.3-0.9,0.8-1.2,1.3c-0.3,0.5-0.4,1.1-0.4,1.8c0,1.1,0.2,2.2,0.7,3.2c0.5,1,1.7,1.9,3.6,2.8
	c2,0.8,5,1.3,9,1.3c4.8,0,8.5-0.8,11.1-2.3c2.5-1.3,4.2-3.9,4.3-6.7l0.2-2.9h13.1L59.4,52c-0.7,6.6-3.2,11.6-7.6,15.1
	C47,71,40.1,72.9,31.1,72.9C23.3,72.9,17.1,71.2,12.4,68z"/>
<path class="st0" d="M78,65.2c-5.2-5.3-7.8-12.2-7.8-20.8V8.1H83v36.5c0,5.3,1.5,9.5,4.6,12.4c2.5,2.4,6,3.7,10.4,3.7
	c4.4,0,8-1.2,10.6-3.7c3.1-2.9,4.6-7.1,4.6-12.4V8.1h12.7v36.3c0,8.5-2.6,15.4-7.8,20.8c-5.2,5.4-11.9,8.1-20.2,8.1
	C89.9,73.3,83.3,70.6,78,65.2z"/>
<path class="st0" d="M132.5,8.1h13.8l18.1,45.6l18.1-45.6h13.9l-26.1,64.4h-11.7L132.5,8.1z"/>
<path class="st0" d="M203.9,8.1h12.8v64.4h-12.8V8.1z"/>
<path class="st0" d="M245.8,70.4c-3.6-1.5-6.9-3.7-9.6-6.5c-6.1-6.2-9.1-14.1-9.1-23.6s3-17.3,9.1-23.5c5.5-5.6,13-8.7,20.8-8.6
	h27.6v64.4H257C253.2,72.6,249.4,71.9,245.8,70.4z M271.9,60.2V20.5h-14.6c-4.9-0.1-9.5,2-12.6,5.8c-3.2,3.7-4.8,8.4-4.8,14.1
	s1.6,10.4,4.8,14.2c3.1,3.7,7.7,5.8,12.6,5.7L271.9,60.2z"/>
<path class="st0" d="M304.2,63.4c-6-6.2-9-13.9-9-23.3s3-17.1,9.1-23.3c6.1-6.4,14-9.6,23.6-9.6c9.6,0,17.5,3.2,23.6,9.6
	c6,6.2,9,13.9,9,23.3s-3,17.1-9,23.3c-6.1,6.4-14,9.6-23.6,9.6S310.3,69.9,304.2,63.4z M342.5,54.7c3.6-3.8,5.3-8.7,5.3-14.6
	c0-5.9-1.8-10.8-5.3-14.5c-3.7-3.9-8.6-5.9-14.6-5.9s-10.9,2-14.6,5.9c-3.6,3.7-5.3,8.6-5.3,14.5s1.8,10.8,5.3,14.6
	c3.6,3.8,8.5,5.8,14.6,5.8C334.1,60.5,339,58.6,342.5,54.7z"/>
<path class="st0" d="M371,8.1h12.8v42.8l31.5-42.8h12.2v64.4h-12.8V29.6l-31.4,42.9H371V8.1z"/>
</svg>
